
<global>
amp_veltrack=0
ampeg_release=0.45
</global>

<group>
group_label=PP
lpc_hicc1=42
lpc_locc1=0

<region>
hikey=a3
hivel=127
lokey=g#3
lovel=0
lpc=bTokQQby28EI+AFC1WKywfOrOUEc7QrBdSb2QMbLusBr55ZABU1EwCCABb80SlhA3lolwCwQPz8wm88/Q0OZwIZevUDUCYTAXVwiQKjO/r8zPF0/wGqpPqeI6b4xWiM+
lpc_rms=-35.51
pitch_keycenter=a3
sample=Soloviolin2_trill_half_PP_A3.opus
</region>

<region>
hikey=a4
hivel=127
lokey=g#4
lovel=0
lpc=RQj3QCtypMFhNdZBBHW4wf8bhUGwCU7Bl0kaQTdv2sBRwKJAHkCLwJHVXkApPALAxx60P0w4sb+1fyNAXvCLwOSDp0CEUnjAjpP9PzO9xb/nqAFAQCHuv5nOZz9Oh6a9
lpc_rms=-37.88
pitch_keycenter=a4
sample=Soloviolin2_trill_half_PP_A4.opus
</region>

<region>
hikey=a5
hivel=127
lokey=g#5
lovel=0
lpc=SDi0QE7WDsGt2RRBY/vPwBiKlkAxJfG/nZb5Ph2tnj7fw4U/8UpFvw/oKj/lSx0+WTgHP1XeCT9xSLU+Eq4cPmMvFj+60je/hVbSP/cfMr9eZ9o++wqfPaQjYz8EyAI9
lpc_rms=-34.87
pitch_keycenter=a5
sample=Soloviolin2_trill_half_PP_A5.opus
</region>

<region>
hikey=a6
hivel=127
lokey=g#6
lovel=0
lpc=4VgHQSNMB8EhjPFAuaSNwKDolkDkEoHA1oBYQM7yjcCJxYBAsBGHv/jMOkBLbArAeyxxQOpo98BNcIlASMWav18Snj5UowK/h135PuY94z/KTpe+DjPHPyaSur8/8cq+
lpc_rms=-29.11
pitch_keycenter=a6
sample=Soloviolin2_trill_half_PP_A6.opus
</region>

<region>
hikey=b3
hivel=127
lokey=a#3
lovel=0
lpc=fs+BQWrlL8IWA1dCIn4hwlfnrkHATE3Bv1wlQcJ6JcF0OQ9BcEuNwAq4mL+Aq3tA/e/rv8rFbL8yn5dAtJsFwU0XFEGBrQPBazLmQC7zw8BmcFVAgbSrv0kRxD5bW4M+
lpc_rms=-34.29
pitch_keycenter=b3
sample=Soloviolin2_trill_half_PP_B3.opus
</region>

<region>
hikey=b4
hivel=127
lokey=a#4
lovel=0
lpc=loffQB3KiMH7EZpBhFZnwXAjKkHZ0gnBvc66QDXzXMAbEzBAc1zsv6HVeL11Pas/8N9Xv7EIsT722HE+WURBv6+2eT/4VYa/nGuzPu47sT+SNzfA8nsGQOfRA72Oy96+
lpc_rms=-40.77
pitch_keycenter=b4
sample=Soloviolin2_trill_half_PP_B4.opus
</region>

<region>
hikey=b5
hivel=127
lokey=a#5
lovel=0
lpc=uOTpQFi0KsFPnSVB8szzwEaRrEBvBiTAzE+5P8Zatr98MP0/U1Kbv/FoMT8wbBe/TmLRPyA/7b+/5ghAvIq+v/thbj+x1uW+vMI6PwQ/PT6o5wy/nECOPT7qOj82oxTA
lpc_rms=-33.27
pitch_keycenter=b5
sample=Soloviolin2_trill_half_PP_B5.opus
</region>

<region>
hikey=D#7
hivel=127
lokey=a#6
lovel=0
lpc=S+cbQT3tT8GNHDZBnInpwP2ds0DLIBDAdsHxP6rNaMA/rdVAsaZnwIfuKUDopInAsbQHwIBnx0BA+YjAsEDgP3i/br7YIGI+uLNcPrew8j9qU0nAhMGjP2qnLj/G1kk+
lpc_rms=-29.89
pitch_keycenter=B6
sample=Soloviolin2_trill_half_PP_B6.opus
</region>

<region>
hikey=c#4
hivel=127
lokey=c4
lovel=0
lpc=CzYEQvOFwsKBjflCH2LCwnFYakKV7SPCkscOQgjE/MFzQMtBcv2EwZIyvkDiQINAHiO3wGvQa0Ck+lxA+WBuwWLTnkGGq4zBgKOAQfj5S8GIOJI/vqkCQaG08sDqeSlA
lpc_rms=-25.87
pitch_keycenter=c#4
sample=Soloviolin2_trill_half_PP_C#4.opus
</region>

<region>
hikey=c#5
hivel=127
lokey=c5
lovel=0
lpc=Jz2PQXeRNMKc5GJCp7lAwhZS/kHaWYbB2GqEQC9+675+8p1Au+bawM3UUkDW9j4+5+ciQKnrkcBl/OlAvJhAwSAJakFIpkXBvcgQQcXwzMBZlIc+ybbEQCGX4cCoJ39A
lpc_rms=-28.49
pitch_keycenter=c#5
sample=Soloviolin2_trill_half_PP_C#5.opus
</region>

<region>
hikey=c#6
hivel=127
lokey=c6
lovel=0
lpc=+00CQeJqPsFvIjxBKS0JwVpBwkCZT0zADE3tP38MI8DgJIBAvYROwLGpBEDoKIO/8afbP7hm178MRBRAENDtvyXUrz9XUQu/W6TNPpvfuT5ONJq/oSkQwLKTyj//hv2+
lpc_rms=-32.20
pitch_keycenter=c#6
sample=Soloviolin2_trill_half_PP_C#6.opus
</region>

<region>
hikey=d#4
hivel=127
lokey=d4
lovel=0
lpc=Rop8QeJiLsLeQFJCuZ4SwjtakkFdKkXBOY0lQc2kAMFbevFAuqzQwJ8AZUDrXhU7qGrSPsNuhsCYIAZBFlEMwS4L3kAgp9TAyMfMQAjqtcBVtRBAGLbfP4y4PsA+JNM/
lpc_rms=-35.87
pitch_keycenter=d#4
sample=Soloviolin2_trill_half_PP_D#4.opus
</region>

<region>
hikey=d#5
hivel=127
lokey=d5
lovel=0
lpc=Cxv8QGrkl8FaLrpBiNKYwYdrZEGQUiXBzoPAQEzCcsAxyYVASfFiwBecHD9hp74/73BXv027NT12S0c/wVx5v4kIlj+0wnu/imypPoyCA0BAJofAnKF5QPDXu79QCu4+
lpc_rms=-39.73
pitch_keycenter=d#5
sample=Soloviolin2_trill_half_PP_D#5.opus
</region>

<region>
hikey=d#6
hivel=127
lokey=d6
lovel=0
lpc=h1X1QEgOJcGwzSVB/G7vwEYZqUAMR37A92CSQHtZlMA0QYdA2ZMHwMkUdD+UWVS+oxSHP+Tgjr9sSmg/t2+NPnoCtz7T5Au/7Bhsvq8abcA5dHpAxfdNwA/D0T9cqoO+
lpc_rms=-30.56
pitch_keycenter=d#6
sample=Soloviolin2_trill_half_PP_D#6.opus
</region>

<region>
hikey=f4
hivel=127
lokey=e4
lovel=0
lpc=qckqQesk5MGYrQxCMATiwaXXmEGE9lTBWW/wQPpijcB9KcZAR9DqwEFPnkCHnN2/byzpPoOERr/ciARAojA0wPPEgkDTz6vA0NGFQPpFm79d1RvAHYSfQIigncCoRBBA
lpc_rms=-35.32
pitch_keycenter=f4
sample=Soloviolin2_trill_half_PP_F4.opus
</region>

<region>
hikey=f5
hivel=127
lokey=e5
lovel=0
lpc=nR6tQDtyRsEsiXJBML9GwTGBAUHJHVnAtSdsPcrnzD7R0bI/eAYiwJDHA0DHl2a/Dl1fPqGyjj4upt4+W1YBwEBFfkB2hozAskqGQANcPsD7IMw/A51dPpIWSL+kle0+
lpc_rms=-39.88
pitch_keycenter=f5
sample=Soloviolin2_trill_half_PP_F5.opus
</region>

<region>
hikey=f6
hivel=127
lokey=e6
lovel=0
lpc=xPQKQV39P8ERzjNB0RcAwYXJxUBKvlfAUYW+P8zP6b+K8IlAMeBpwBg3QUDKyUDAU3CTQE1QbcBieCVAIaa8v5ImDcBDWEu+Ua0tQMOkbcBtNHFA2dprwFWpXEDzMLq/
lpc_rms=-28.45
pitch_keycenter=f6
sample=Soloviolin2_trill_half_PP_F6.opus
</region>

<region>
hivel=127
key=g3
lovel=0
lpc=42BYQQMfIMLj1lpCmpM4wvKb4kGQrInBWOw/QZI9AsHAJMNAt/GfwIPbSUBhKDe/+3k5vxQ45T/T5yu+Zn+KwBdM8UAoH9PABHM2QMIJzD9FoMfAtgsFQZOlvcC/yvw/
lpc_rms=-34.11
sample=Soloviolin2_trill_half_PP_G3.opus
</region>

<region>
hikey=g4
hivel=127
lokey=f#4
lovel=0
lpc=qK0uQWNW6MFz3Q9C7+jowVvapUHLaITBJrMrQYFSr8BbZYtACp+EwL5wvz6OS4VAYBl8wNi2GECpFWG/baSMv5DtHEC21s+/cBhFvxZtI0D7Bh/A390mP8YMDT/semu+
lpc_rms=-37.63
pitch_keycenter=g4
sample=Soloviolin2_trill_half_PP_G4.opus
</region>

<region>
hikey=g5
hivel=127
lokey=f#5
lovel=0
lpc=rzeIQL+D7cCzytNAZPJbwM0d3z93eRC/oaZHP4jS3b8dAhxANVacv47VIb88FNU/HFjvvjyalr5CuAs/5QKxPmpiML9VrJ8/mSYnvyO5Qj9HZJS/ywnPP7J9s79axXg/
lpc_rms=-35.15
pitch_keycenter=g5
sample=Soloviolin2_trill_half_PP_G5.opus
</region>

<region>
hikey=g6
hivel=127
lokey=f#6
lovel=0
lpc=mfvEQLT86MDQpd1AL4CPwCf/IEBvA3i+ePnwvmmdIL8t8gM/r7ivPjB3Hr5OVYo/t9I9PunRUr+DAQg9J45MwESXbEAeSyHATT4cP+71PD8w876/DdIBQFqz0Lw76Ao9
lpc_rms=-32.89
pitch_keycenter=g6
sample=Soloviolin2_trill_half_PP_G6.opus
</region>
</group>

<group>
group_label=MF
lpc_hicc1=84
lpc_locc1=43

<region>
hikey=a3
hivel=127
lokey=g#3
lovel=0
lpc=NYwBQcZotsG0A/RBv7fIwX4FcEGRmBfB/0D9QKfRxsBfaYJA7VIjwPXclD9LwbM+NOQIwI+DYkDReSnAUG2VvqtLEkCbtdG/YXE+P6aUCb++7VU+Y0bpPq3QGb9Kopc+
lpc_rms=-20.93
pitch_keycenter=a3
sample=Soloviolin2_trill_half_MF_A3.opus
</region>

<region>
hikey=a4
hivel=127
lokey=g#4
lovel=0
lpc=rZ3YQOFWh8FD555BYUBswXEsEUHpjtLAdli3QI2zpsBPxpFASDlGwNlhRj9gybM/ilAUwO80AkBDuR+/jovqvkJxcT/+xDi/gMpEP2xCJb9VQ+m+r8eDP8/dFL8G6Jc9
lpc_rms=-21.59
pitch_keycenter=a4
sample=Soloviolin2_trill_half_MF_A4.opus
</region>

<region>
hikey=a5
hivel=127
lokey=g#5
lovel=0
lpc=4K6VQJnrn8Dci7lAeE9NwHhnhEDt9BTAZUtNQHM+7b9YuTBAjWWvvgWSfz8jOxk+jR72PxLYgb/57w9AHGCPPcnOsT5pL6s/kN84Ps3jtD8m1cu+Jz7iPwEV4r5EHO4/
lpc_rms=-15.48
pitch_keycenter=a5
sample=Soloviolin2_trill_half_MF_A5.opus
</region>

<region>
hikey=a6
hivel=127
lokey=g#6
lovel=0
lpc=37DfQGBSZcB8xY1AKo+Qv4OMiUBqeOS+aGcpQGShtL9e1UBAGTqkPxCZDUCCw3G+o/YAQOOxicB/GSs+AaTyvQle9L5+SG6/K/LgvzgVTj/O/QO/MB0WPmnJqb89jq+/
lpc_rms=-17.21
pitch_keycenter=a6
sample=Soloviolin2_trill_half_MF_A6.opus
</region>

<region>
hikey=b3
hivel=127
lokey=a#3
lovel=0
lpc=DzMyQRwf8cFmRBhComzvweGYhEEYHhfBtyPkQDSju8AgeJhA+oNewP1enj/9U7g/+HxCwPUULkBy3tu9JwBawBRin0DgLlnACC6rP/BYQb9WD7C+3oz/P2HLDMAYhoE/
lpc_rms=-19.69
pitch_keycenter=b3
sample=Soloviolin2_trill_half_MF_B3.opus
</region>

<region>
hikey=b4
hivel=127
lokey=a#4
lovel=0
lpc=JFKYQFI4K8Ewgj9BbN4QwVcm40CSna/AGOBFQAr6BcAb2UxAWA4wwFMQLT9QV9E+3WNAP1v+uL8w+ao/EF7PvxOTEkA8fdK/nvofP8JQrL5nQ5g+IWwAPtS/h76r66g9
lpc_rms=-21.02
pitch_keycenter=b4
sample=Soloviolin2_trill_half_MF_B4.opus
</region>

<region>
hikey=b5
hivel=127
lokey=a#5
lovel=0
lpc=x9X0QDXqDcFtnhpBW7q9wBhTj0C8juy/C+ExQNF2rL9VOPc/TDIOO2gzkD9kbGO/5IlyQPs3bsDcmZtA8gkmwBqUGEC+dUm+89G3P4kg6L4X+8U/DlSTukDbhT+t5RHA
lpc_rms=-14.18
pitch_keycenter=b5
sample=Soloviolin2_trill_half_MF_B5.opus
</region>

<region>
hikey=D#7
hivel=127
lokey=a#6
lovel=0
lpc=8N8VQSp5nsDIzYJAVyB1v2bDDkBpzUo+gG83QLT/T78xq01Aam7HPhKgTUDZ3pfAaBq8wN5AiUAOi3y/U2SoP/WBDD7gZx4/76Eiv1cw8j/Bwre/guVqPyw75b/MLLVA
lpc_rms=-19.79
pitch_keycenter=B6
sample=Soloviolin2_trill_half_MF_B6.opus
</region>

<region>
hikey=c#4
hivel=127
lokey=c4
lovel=0
lpc=pymxQQnedsKT1JVCkMxUwmi300EysYTBj09dQY9mD8H5G3ZA3Hqtv1yPXj+abKM/kSHlv7YGer+kgV9A45qov167t74KWHi/sRVFQEUxfcB2v2i/tBAMQUIYKcFmcI1A
lpc_rms=-14.78
pitch_keycenter=c#4
sample=Soloviolin2_trill_half_MF_C#4.opus
</region>

<region>
hikey=c#5
hivel=127
lokey=c5
lovel=0
lpc=5TwUQUWrr8FhCMdBedmYwcVxSEEB8eLA1kUAQJAiJr8knUBAJG6CwAveJkCp0Ea/WTNWP0s3Sb9SbMY/st90wJIFtkDbZq/ATJF4QGZP6r/lX3M+wjs+P48COL/emCI/
lpc_rms=-15.48
pitch_keycenter=c#5
sample=Soloviolin2_trill_half_MF_C#5.opus
</region>

<region>
hikey=c#6
hivel=127
lokey=c6
lovel=0
lpc=BufiQC5xx8BgCANB9cCBwFGOpUAFytG//nM6QOxCIT6V1Lw/0ef3P1AG0j1YKNo/wRveP10ugr7f5DlAYpwfvgzbG0AuQo89QscaQCcFiz7my6U/K0IrwPaxyT8AdRe/
lpc_rms=-15.01
pitch_keycenter=c#6
sample=Soloviolin2_trill_half_MF_C#6.opus
</region>

<region>
hikey=d#4
hivel=127
lokey=d4
lovel=0
lpc=/rciQa7F4MGBWg1CBpzawdQPiEEVcFLBsI8sQc/c58BsSa9Ain6NwI9BkT8INDZAwDyDwCHeUUBm6Ea/KlQjwLI3nEBIA5rAQHF5QLgPgMCHlCxASPRTPswn+b8ouJA/
lpc_rms=-18.14
pitch_keycenter=d#4
sample=Soloviolin2_trill_half_MF_D#4.opus
</region>

<region>
hikey=d#5
hivel=127
lokey=d5
lovel=0
lpc=JcOHQMhbD8EOoh9BDc3swAN5qkCJBn3AHIwRQCrdgr8s5Gc/NcbjvhgMk77Y9Z4+4L8ZPyXxO7/xwW0+1Nt+PjBPpD6cNXu/jBC0P77tib8yb1Y/Hw3ivi/S0z44XMQ4
lpc_rms=-20.12
pitch_keycenter=d#5
sample=Soloviolin2_trill_half_MF_D#5.opus
</region>

<region>
hikey=d#6
hivel=127
lokey=d6
lovel=0
lpc=E9LfQP69y8BKJtNAbzKBwJCemEB6URXAcrVTQMKrtL8E6tc/zmgEPxZJjT5sx3s/iwYvP5UspD05+o8/9/QEvrebzT+HkVy9D0IBv2osP8DSiCBAgHfzv1krkj9CDFa/
lpc_rms=-17.88
pitch_keycenter=d#6
sample=Soloviolin2_trill_half_MF_D#6.opus
</region>

<region>
hikey=f4
hivel=127
lokey=e4
lovel=0
lpc=5a0GQckassGVidVB8YadwUcBRUEI3B/BPSgEQUv8usDQAZ9AQGqewPscUEDmW2W9OYUmwB09ZkCc9h7AdOVnPo7F+j+X7CLAuiL3P5ntgr80gye/Vb0bQD7fKcCaipY/
lpc_rms=-20.58
pitch_keycenter=f4
sample=Soloviolin2_trill_half_MF_F4.opus
</region>

<region>
hikey=f5
hivel=127
lokey=e5
lovel=0
lpc=UN9/QJya+MDZ5PtAW1KgwJRdSECOLPa/a+iSPwjh7L5M+20920JqP+TSnr91bGs/2YeYvdSlWr/JbNk/EF6Dv+6L8T1wJDM/sL3yvqjbMj9ITEK/i0EdPwyPXD2RQAU9
lpc_rms=-15.24
pitch_keycenter=f5
sample=Soloviolin2_trill_half_MF_F5.opus
</region>

<region>
hikey=f6
hivel=127
lokey=e6
lovel=0
lpc=DXa8QEwpiMAGl6NAXHW2v/gtbUBGnao+oKkCQI+lAz+7kQtAnJYyP7e+AEAc3NI+4aElQFr7/z4Py8U/mMSKP+yVjL/77fe+SJcJQDAmpL/HuRU/orqgv6VGbT+bOiK+
lpc_rms=-16.61
pitch_keycenter=f6
sample=Soloviolin2_trill_half_MF_F6.opus
</region>

<region>
hivel=127
key=g3
lovel=0
lpc=BZ0HQYZbvcENr/tB8LvMwVNaZEEftuHAzXqdQKrdpsDiA6FAXBcXwL4Z07+ttWhAYt4owLp1PD7fdxRALZFAwEeSF0D86/+/h7sUQHuWeb+k+M6/xyAmQAHfoL/LgK09
lpc_rms=-21.55
sample=Soloviolin2_trill_half_MF_G3.opus
</region>

<region>
hikey=g4
hivel=127
lokey=f#4
lovel=0
lpc=aQLjQDfzksGDsrNBKVmMwUQVNkFIewLB7MqmQGKBOsBjTkNAxMNgwCCy3D/vg1M/i2Dyv27jnT8NzSE//KYswGK7dkB3q1LA0VkKQBAsXr/5iBG/rZ/AP21zir8oC5A+
lpc_rms=-20.68
pitch_keycenter=g4
sample=Soloviolin2_trill_half_MF_G4.opus
</region>

<region>
hikey=g5
hivel=127
lokey=f#5
lovel=0
lpc=KZNVQN13nsCh2ZRAl9tSwHZtSkDWIfS/DfGlP1zxJ7/UF4Y+iSd1P6qjmr9VWNI/poMXv4nUub1ZW0U/yQFYvvdy0T6QcKy+39HgPmawRj9uMi6/xgGFP4qWhr8EoIk/
lpc_rms=-18.03
pitch_keycenter=g5
sample=Soloviolin2_trill_half_MF_G5.opus
</region>

<region>
hikey=g6
hivel=127
lokey=f#6
lovel=0
lpc=eIGxQF3fnsDuUd9AXG9OwKr9akCFAIc+ngwFQEoDUL3W7RpAkxakP/aQwj/4jLc/xDkQQM5OmD7ZLb8/ipIHwLR7XkALgQ/A16YJQLvgS754syK/UNuwP9cEAb5JGI88
lpc_rms=-17.56
pitch_keycenter=g6
sample=Soloviolin2_trill_half_MF_G6.opus
</region>
</group>

<group>
group_label=FF
lpc_hicc1=127
lpc_locc1=85

<region>
hikey=a3
hivel=127
lokey=g#3
lovel=0
lpc=mlwIQZs1ysFj3hZC++ASwof710GWf47B3qRBQbF798A4i4dA4twlwJKyAUDTRdO/GcmqP2sJ6L+daz1AZYV1wB8UkUDq+3zAApUVQPrinb4jd8u+zpXSvQIw+j4YI4q+
lpc_rms=-20.77
pitch_keycenter=a3
sample=Soloviolin2_trill_half_FF_A3.opus
</region>

<region>
hikey=a4
hivel=127
lokey=g#4
lovel=0
lpc=/0i5QPPEX8Hwn4NB3PxLwctOEEGRlL/AMKY9QL1pkL8v4Ik/x7iBvwUbobzdJnM/uCZov+h2DD+txJU+i2GvvxBsEkC8vBHAGs7pP4nOCr+gdQW/3fAUP5nJKj03dke+
lpc_rms=-22.88
pitch_keycenter=a4
sample=Soloviolin2_trill_half_FF_A4.opus
</region>

<region>
hikey=a5
hivel=127
lokey=g#5
lovel=0
lpc=1YmSQPhVnMD0F7RAyY5cwA+Tc0Cycba/q3kEQFSNkr5eYw0/H0u1PzDiDT6WJh4+TFCXPxPv6T3ZLrA/VRhlvjVISz8+tqk/mXEBvuUQnj+rzea9awC4PxFmfz1/q7Q/
lpc_rms=-16.84
pitch_keycenter=a5
sample=Soloviolin2_trill_half_FF_A5.opus
</region>

<region>
hikey=a6
hivel=127
lokey=g#6
lovel=0
lpc=cxiyQFzZTcDfjl5AGKESvyp1PEBZxbC+C1MCQFzwK7456pE/QWIJQHxxCj9a8lo+XPUrP9LNC8B4cv6/AxRtPwN+or9ujn2/G/iSvwSn3b7CDUu/DpcYvvJ/bb/0Quy/
lpc_rms=-18.06
pitch_keycenter=a6
sample=Soloviolin2_trill_half_FF_A6.opus
</region>

<region>
hikey=b3
hivel=127
lokey=a#3
lovel=0
lpc=ATA4QbnVCsKLHk5CGOVLwuGWG0J/F9fBWheRQTSRK8FJJ5JAuVqsv4SpHD9BvPC/Y1BbQEjLp8CrdN1AiafuwIn56UDXYqPAd/eQP+x/5T9Fvdq/zzlmPilrKD6Lhes9
lpc_rms=-16.80
pitch_keycenter=b3
sample=Soloviolin2_trill_half_FF_B3.opus
</region>

<region>
hikey=b4
hivel=127
lokey=a#4
lovel=0
lpc=BXjOQCU1gMFFs5RBZ9VUwVKI+kBFp3XAqAL4PkpIlD+LRBS/hYgPv0730T8grw7AdQnDP2XZ7b7d7jE/Vdr5v9efTUDTNybA5PgvPyETLT/pHoC/KE27P+mgsb/zoCs/
lpc_rms=-20.96
pitch_keycenter=b4
sample=Soloviolin2_trill_half_FF_B4.opus
</region>

<region>
hikey=b5
hivel=127
lokey=a#5
lovel=0
lpc=KGKnQOXcpcD6K5ZAq1/qvyag8T8amQG/af/3P7rsQ7+pI08/JcFbP6HPAj+YMEs+izYpPwMqBz9KBTI/mAiJPkWbNz92Bm0+7WS/P2EzhL+nagdAv4obv6HPRz+kTYy/
lpc_rms=-16.76
pitch_keycenter=b5
sample=Soloviolin2_trill_half_FF_B5.opus
</region>

<region>
hikey=D#7
hivel=127
lokey=a#6
lovel=0
lpc=2EwTQQeSicAaYY5Awy6Nv1ypKEDKIwQ/rXooQPmsuL7bJwRAzertP95Iaj+Wd2/Am4LLwG9QYj92jla/LMhWv1nqtL+eCre+r6DOv7c8H77aVd2/SGHSvszIJ8AL/5pA
lpc_rms=-17.29
pitch_keycenter=B6
sample=Soloviolin2_trill_half_FF_B6.opus
</region>

<region>
hikey=c#4
hivel=127
lokey=c4
lovel=0
lpc=XqiAQYTPRcKS+pRC7VaVwn4FYELo7wrCiMuTQdgoC8HM9pBAOy49wHWrqT55JII/O6O0Pj1uYMBdbflAyrgjwXgkKUH3yQjBaEmyQAdh+b9gr2K/K5TOP1rcd7/1qRQ+
lpc_rms=-14.48
pitch_keycenter=c#4
sample=Soloviolin2_trill_half_FF_C#4.opus
</region>

<region>
hikey=c#5
hivel=127
lokey=c5
lovel=0
lpc=frvjQM/jbsGeZ4JBJ2NIwSvvIUEWy/vAprVXQLR5jD+5lw7AIYXpP6UoMMAzhjNALaXpvxjsWT8wa549XtyQv4UBC0AuupO/xIRlPxt4a79ZfDA/nuWRPtSy2L7UDjE/
lpc_rms=-17.43
pitch_keycenter=c#5
sample=Soloviolin2_trill_half_FF_C#5.opus
</region>

<region>
hikey=c#6
hivel=127
lokey=c6
lovel=0
lpc=9umOQI14ccBDKoFAaO/2vyHfEkBO9C+//BftPzicJ79Yzrc/i8pmPlyrBz+7ciM+XOfaPy0cIr8f17U/0tKtvKOOjz+G7oa+GzjjP8qZq74hKDQ+7VFQvz4/d7sSBvs9
lpc_rms=-16.92
pitch_keycenter=c#6
sample=Soloviolin2_trill_half_FF_C#6.opus
</region>

<region>
hikey=d#4
hivel=127
lokey=d4
lovel=0
lpc=KbsfQR/f6MHs/CVCisIdwooF6EH/SZfB2z84QTTTxsAIhzxAj7HNv/RJwT9beSvAEU5BQDisC8Agdvw/caguwJZQdUDCdmfAfsQXQCuff7/RZRk/m8hVv5cNMT8gulq+
lpc_rms=-19.64
pitch_keycenter=d#4
sample=Soloviolin2_trill_half_FF_D#4.opus
</region>

<region>
hikey=d#5
hivel=127
lokey=d5
lovel=0
lpc=qC29QPR4Q8HDv1VB95gYweig4kA7x6rAmKBjQMA8qL/R06m+dMaiP53f2L/0Qrg/1ZSRv9iPFT8b03g/uO8LwAcNKUAMygPAho8QQEUlob+SBN0+bzoHP62Llz2wp8U9
lpc_rms=-16.21
pitch_keycenter=d#5
sample=Soloviolin2_trill_half_FF_D#5.opus
</region>

<region>
hikey=d#6
hivel=127
lokey=d6
lovel=0
lpc=yUiSQL/PjcAjIItApYAVwDgYTEANxrq/JvIKQBwKtr+Vcn0/worOPYQdCj8MSry+iJZDP6XDNz3e0VA+8YnWu1vTVj+aiVa/45pAP/8HQcC4Lvc/+BTPvw8feD/berW/
lpc_rms=-18.67
pitch_keycenter=d#6
sample=Soloviolin2_trill_half_FF_D#6.opus
</region>

<region>
hikey=f4
hivel=127
lokey=e4
lovel=0
lpc=AjEAQbzKqMHJk9ZBZnW2wUYAgkEw4zHBx/nBQKCawb/F1OK9dNVdv+7cND8Pshw/T73pv83i+D+GR2C/Z6i6v/BBikD3463Aw6WCQFBamb8bLo+/A87zP6xGs79OaSY/
lpc_rms=-19.87
pitch_keycenter=f4
sample=Soloviolin2_trill_half_FF_F4.opus
</region>

<region>
hikey=f5
hivel=127
lokey=e5
lovel=0
lpc=PW1WQOFapsDVSp5Ap59XwIZGIkCq9mq/I5qyPozZcT7FtnW/1rjQP37vmr80Jyk9s06cP3qYuL9BRao/y0Bpv7Srbz8v6QY+CqacvpazJz+xTAm/RmyAP0RQNr/8QKc+
lpc_rms=-15.76
pitch_keycenter=f5
sample=Soloviolin2_trill_half_FF_F5.opus
</region>

<region>
hikey=f6
hivel=127
lokey=e6
lovel=0
lpc=TWVlQMDjGsCKaRhAzMHgvnSDwT8DbTe/ubPyP8bdob9YUHI/UYTPPlirJj2wg/W+4QldP0ntHL7bVwo/djv9vmXFLr4lIv2/GaibP1Ggnb/n7cW+NwS9vuijjT2qUhi/
lpc_rms=-22.55
pitch_keycenter=f6
sample=Soloviolin2_trill_half_FF_F6.opus
</region>

<region>
hivel=127
key=g3
lovel=0
lpc=hSgPQR5/2cFWnyJCaIgcwhBb4kHNZJXBc+dHQcjlzMB6wJs/u0Lmvk0ZGkBTIVfAKA1TQOoeh8A327JAvCmrwKJUhkDsDTrA5qvXP2gdRb+0dVU/IJOEv/7fVj8G66i+
lpc_rms=-21.99
sample=Soloviolin2_trill_half_FF_G3.opus
</region>

<region>
hikey=g4
hivel=127
lokey=f#4
lovel=0
lpc=C8DyQMBkksEDAq5BTS2LwZxVQkFnsPjAG2RSQHsq5L7ppXm+Rc2xvvnpPD3Fwf2+UQiUPymi3r9jUAhAXg01wH9Wh0CrHpHAcSV6QB4KAsA3fBI/MtPzPiNAE79d44w+
lpc_rms=-21.64
pitch_keycenter=g4
sample=Soloviolin2_trill_half_FF_G4.opus
</region>

<region>
hikey=g5
hivel=127
lokey=f#5
lovel=0
lpc=5wdVQKTujcAys4FAyRMkwPG6EUDIAqS/yZPnP40Zxr/uEWw/KSyaPqY5Wr+mtzs/otaWPgTvgT5FRLe+xfUSPwtVhb6Ct6M/EyqrvnBYeD6ekJm+9S1QP4yXIr/eZyY/
lpc_rms=-18.95
pitch_keycenter=g5
sample=Soloviolin2_trill_half_FF_G5.opus
</region>

<region>
hikey=g6
hivel=127
lokey=f#6
lovel=0
lpc=rU2JQP7LNcAnoHFAwzgfv3iCyT/wsx+9KTLOPzu827+1zos/DGWOvi/GnT7cjG69EhCyPoNZ2L7Af/0+N3tAwEuhoz4GT0K/Faucv+shxL4qK72+erl9v4dLez90r7u9
lpc_rms=-22.11
pitch_keycenter=g6
sample=Soloviolin2_trill_half_FF_G6.opus
</region>
</group>